<svg id="Layer_1" data-name="Layer 1" xmlns="http://www.w3.org/2000/svg" viewBox="0 0 886.49 494.71"><defs><style>.cls-1,.cls-4{fill:#231f20;}.cls-2{fill:#fff;}.cls-3{fill:#ec1b39;}.cls-4{font-size:20.16px;font-family:OpenSans-Semibold, Open Sans;font-weight:700;}</style></defs><title>aidies-logo</title><rect class="cls-1" width="494.71" height="494.71"/><path class="cls-2" d="M88.41,303.73q29.75-14.36,59.5-14.36a122.75,122.75,0,0,1,21,1.87,56.29,56.29,0,0,1,19.6,7.18,42.22,42.22,0,0,1,14.2,14.05q5.4,8.76,5.41,21.86V413q0,8.12,4.06,11.24a15,15,0,0,0,9.46,3.12,13.89,13.89,0,0,0,6.77-1.87L225,459.22a49.69,49.69,0,0,1-21,4.37q-21.65,0-31.1-13.74-15.55,8.75-25,11.87a58.63,58.63,0,0,1-18.26,3.12q-21.65,0-36.17-13.74T78.94,414.26q0-21.86,13.52-34t35.16-15.3l37.86-5.62V348.07q0-12.49-7.77-16.55a36.77,36.77,0,0,0-17.24-4.06,76.86,76.86,0,0,0-23.33,3.75,101.61,101.61,0,0,0-21.3,9.36Zm55.44,83.68q-9.48,1.26-15.21,6.86t-5.75,16.24q0,19.37,18.93,19.36A30.23,30.23,0,0,0,152.3,428a108.47,108.47,0,0,0,13.18-6.25V383.66Z"/><rect class="cls-2" x="249.74" y="293.74" width="46.65" height="166.73"/><path class="cls-3" d="M273.15,209a17.88,17.88,0,0,1,6.69-8.19c3.62-2.57,7.74-3.25,12.07-2.91a23.63,23.63,0,0,1,8.46,2,17.67,17.67,0,0,1,9.73,12.24,31.35,31.35,0,0,1-3.26,23.59,46.8,46.8,0,0,1-8.24,11,132,132,0,0,1-11.45,10.06,110.54,110.54,0,0,1-10.7,7.39,5.85,5.85,0,0,1-6.68,0,108.81,108.81,0,0,1-15.11-11c-2.35-2-4.69-4-6.85-6.22-6.2-6.27-11-13.48-12.36-22.35-1-6.76-.31-13.42,3.79-19.27a16.72,16.72,0,0,1,10.25-6.73,23.7,23.7,0,0,1,11-.37C266.39,199.63,270.43,203.34,273.15,209Z"/><path class="cls-2" d="M463.52,31.48v429H424.31L423,446.73a82.85,82.85,0,0,1-21.63,14.36A62.12,62.12,0,0,1,375,466.71q-16.9,0-28.06-8.12A59.27,59.27,0,0,1,329,437.36a98.71,98.71,0,0,1-9.46-29,177.63,177.63,0,0,1,0-61.82,98.67,98.67,0,0,1,9.46-29,59.35,59.35,0,0,1,17.92-21.23Q358,288.13,375,288.12a62.37,62.37,0,0,1,22.65,4.06,75.48,75.48,0,0,1,19.27,10.93V31.48ZM416.87,331.83A50.68,50.68,0,0,0,402,324.34a46,46,0,0,0-12.17-1.88q-13.53,0-21.29,12.49t-7.78,40.59q0,28.09,7.78,40.59t21.29,12.49A54.67,54.67,0,0,0,402,427.06q6.75-1.56,14.88-7.18Z"/><path class="cls-1" d="M544.69,211.83q12.18,0,19.27,6.53t7.1,20.13q0,13-7.1,19.86t-19.27,6.8q-12.16,0-19.27-6.8t-7.1-19.86q0-13.59,7.1-20.13T544.69,211.83Z"/><path class="cls-2" d="M544.36,250.36c-6.64,0-12.2-1.38-16.7-4.1.32.44.63.89,1,1.3q5.79,6.81,15.72,6.8t15.71-6.8c.35-.41.66-.86,1-1.3C556.55,249,551,250.36,544.36,250.36Z"/><rect class="cls-1" x="521.03" y="293.74" width="46.65" height="166.73"/><path class="cls-1" d="M627.43,380.54q1.35,20,10.82,32.47t31.1,12.49q18.92,0,33.13-10.62l6.08,30.6q-21.64,21.24-55.44,21.23-19.62,0-33.47-7.81a64.77,64.77,0,0,1-22.31-20.29,83.81,83.81,0,0,1-12.17-29,154.57,154.57,0,0,1-3.72-34q0-43.08,19.27-65.25t50.37-22.17q28.39,0,47.33,18.11t18.93,51.83a126.63,126.63,0,0,1-2,22.48Zm49.36-23.73A66,66,0,0,0,671,332.14q-5.07-10.92-18.6-10.92-23,0-25.69,35.59Z"/><path class="cls-1" d="M847,333.08a79.82,79.82,0,0,0-22.65-8.43,125.49,125.49,0,0,0-24-2.19q-15.57,0-21.3,3.44t-5.75,9.68a10.37,10.37,0,0,0,3,7.49q3,3.14,13.86,7.49a222.87,222.87,0,0,0,24,9.68,98.12,98.12,0,0,1,20.62,9.68,50.52,50.52,0,0,1,17.92,15.61q6.42,9.38,6.42,25.6,0,25-15.89,39.66t-49.7,14.67a129.55,129.55,0,0,1-33.8-4.37,103.9,103.9,0,0,1-30.43-13.74l4.73-35.59a127.86,127.86,0,0,0,25.7,12.18,91.76,91.76,0,0,0,31.1,5.3q11.49,0,19.61-4.37t8.11-12.49a12.79,12.79,0,0,0-3.72-9.36,36.09,36.09,0,0,0-10.48-6.87q-3.39-1.25-9.8-3.75t-14.54-5.93l-16.23-6.87A121.67,121.67,0,0,1,750.35,373a47.46,47.46,0,0,1-14.54-14.36q-5.07-8.1-5.07-20.6,0-23.1,17.92-35.91T799,289.37a213.57,213.57,0,0,1,26.37,1.87,127.37,127.37,0,0,1,27.05,6.25Z"/><text class="cls-4" transform="translate(859.21 288.12)">TM</text></svg>